<svg width="1600" height="1200" viewBox="0 0 1600 1200" fill="none" xmlns="http://www.w3.org/2000/svg">
  <g opacity="0.16" stroke="#7A0000" stroke-width="2.2" stroke-linecap="round" stroke-linejoin="round">
    <path d="M800 110C630 110 490 200 420 330C350 460 360 610 455 715C550 820 700 890 800 1030C900 890 1050 820 1145 715C1240 610 1250 460 1180 330C1110 200 970 110 800 110Z"/>
    <path d="M800 200C690 200 600 250 555 330C510 410 520 500 575 560C630 620 710 660 800 760C890 660 970 620 1025 560C1080 500 1090 410 1045 330C1000 250 910 200 800 200Z"/>
    <path d="M640 365C690 350 730 360 760 390C790 420 790 460 760 490C730 520 690 530 640 515"/>
    <path d="M960 365C910 350 870 360 840 390C810 420 810 460 840 490C870 520 910 530 960 515"/>
    <circle cx="700" cy="430" r="26"/>
    <circle cx="900" cy="430" r="26"/>
    <path d="M740 570C760 545 785 532 800 532C815 532 840 545 860 570"/>
    <path d="M700 625C740 668 770 680 800 680C830 680 860 668 900 625"/>
    <path d="M585 760C650 760 700 790 730 845"/>
    <path d="M1015 760C950 760 900 790 870 845"/>
    <path d="M470 555C560 540 620 570 670 625"/>
    <path d="M1130 555C1040 540 980 570 930 625"/>
    <path d="M525 335C585 310 640 320 685 355"/>
    <path d="M1075 335C1015 310 960 320 915 355"/>
    <path d="M770 345C785 335 795 330 800 330C805 330 815 335 830 345"/>
  </g>
</svg>
